<svg width="26" height="37" viewBox="0 0 26 37" fill="none" xmlns="http://www.w3.org/2000/svg">
<g clip-path="url(#clip0_16_875)">
<path fill-rule="evenodd" clip-rule="evenodd" d="M16.5549 31.9546V33.5627C16.5549 35.3928 14.9555 36.8887 13 36.8887C11.0445 36.8887 9.44507 35.3916 9.44507 33.5627V31.9546H16.5537H16.5549Z" fill="#3F3F3F"/>
<path fill-rule="evenodd" clip-rule="evenodd" d="M19.4663 27.1554V30.7393C19.4663 31.68 18.6441 32.4512 17.6386 32.4512H8.36146C7.35709 32.4512 6.53372 31.68 6.53372 30.7393V27.1554H19.4651H19.4663Z" fill="#606060"/>
<path fill-rule="evenodd" clip-rule="evenodd" d="M13 0.889893C20.1785 0.889893 26 6.637 26 13.7284C26 21.382 21.0243 21.3605 21.0243 26.0666C21.0243 26.8653 20.3642 27.5147 19.555 27.5147H6.44144C5.63582 27.5147 4.9757 26.8653 4.9757 26.0666C4.9757 21.3605 0 21.3808 0 13.7284C0 6.637 5.81918 0.889893 13 0.889893Z" fill="#FDD835"/>
<path fill-rule="evenodd" clip-rule="evenodd" d="M7.27427 25.2142C7.20921 24.7629 7.09209 24.357 6.93357 23.981C6.4651 22.8492 5.65001 21.998 4.83493 20.9881C4.36054 20.4007 3.89207 19.7656 3.4863 18.9884C2.8321 17.7241 2.35772 16.0921 2.35772 13.7272C2.35772 7.02858 7.54991 1.52859 14.1771 0.942421C13.7879 0.9078 13.3963 0.889893 13 0.889893C5.81918 0.889893 0 6.637 0 13.7284C0 16.0921 0.474383 17.7241 1.13213 18.9884C1.53435 19.7656 2.00282 20.4019 2.4772 20.9881C3.56438 22.3359 4.65511 23.3984 4.91655 25.2142C4.95441 25.4816 4.97452 25.7634 4.97452 26.0654C4.97452 26.3675 5.07744 26.6767 5.25371 26.9166C5.52225 27.2772 5.95523 27.5135 6.44144 27.5135H8.79798C8.43007 27.5135 8.09291 27.3786 7.83502 27.1554C7.52862 26.8916 7.33224 26.4988 7.33224 26.0654C7.33224 25.7634 7.31213 25.4816 7.27427 25.2142Z" fill="#FBC02D"/>
<path fill-rule="evenodd" clip-rule="evenodd" d="M8.79918 27.5135H6.53491V30.7393C6.53491 31.68 7.3571 32.4512 8.36265 32.4512H10.7192C10.2235 32.4512 9.77634 32.2638 9.44628 31.9653C9.10557 31.6526 8.89263 31.2192 8.89263 30.7393V27.5135H8.80036H8.79918Z" fill="#515151"/>
<path fill-rule="evenodd" clip-rule="evenodd" d="M10.7192 32.4512H9.44626V33.5626C9.44626 35.3928 11.0457 36.8886 13.0012 36.8886C13.1562 36.8886 13.3076 36.8779 13.459 36.8612C13.7062 36.8301 13.9476 36.774 14.1783 36.6976C14.0032 36.6427 13.834 36.5687 13.6719 36.4863C13.4271 36.3646 13.2035 36.2153 13.0012 36.0458C12.2677 35.4381 11.804 34.5487 11.804 33.5626V32.4512H10.7204H10.7192Z" fill="#333333"/>
<path d="M21.9944 14.5831C21.5259 14.5831 21.1462 14.1999 21.1462 13.7271C21.1462 9.34695 17.4919 5.78337 13 5.78337C12.5315 5.78337 12.1518 5.40015 12.1518 4.92739C12.1518 4.45463 12.5315 4.07141 13 4.07141C18.4276 4.07141 22.8426 8.40263 22.8426 13.7271C22.8426 14.1999 22.4628 14.5831 21.9944 14.5831Z" fill="#FFEB94"/>
</g>
<defs>
<clipPath id="clip0_16_875">
<rect width="26" height="36" fill="white" transform="translate(0 0.889893)"/>
</clipPath>
</defs>
</svg>
